HIERARCHY
ROOT Hips
{
	OFFSET -3.958830 18.904000 13.208200
	CHANNELS 6 Xposition Yposition Zposition Zrotation Yrotation Xrotation 
	JOINT LHipJoint
	{
		OFFSET 0.000000 0.000000 0.000000
		CHANNELS 3 Zrotation Yrotation Xrotation
		JOINT LeftUpLeg
		{
			OFFSET 1.800000 -1.400000 0.085000
			CHANNELS 3 Zrotation Yrotation Xrotation
			JOINT LeftLeg
			{
				OFFSET 2.215000 -6.000000 0.000000
				CHANNELS 3 Zrotation Yrotation Xrotation
				JOINT LeftFoot
				{
					OFFSET 2.500000 -6.900000 0.000000
					CHANNELS 3 Zrotation Yrotation Xrotation
					JOINT LeftToeBase
					{
						OFFSET 0.200000 -0.500000 1.950000
						CHANNELS 3 Zrotation Yrotation Xrotation
						End Site
						{
							OFFSET 0.000000 0.000000 0.000000
						}
					}
				}
			}
		}
	}
	JOINT RHipJoint
	{
		OFFSET 0.000000 0.000000 0.000000
		CHANNELS 3 Zrotation Yrotation Xrotation
		JOINT RightUpLeg
		{
			OFFSET -1.800000 -1.400000 0.085000
			CHANNELS 3 Zrotation Yrotation Xrotation
			JOINT RightLeg
			{
				OFFSET -2.215000 -6.000000 0.000000
				CHANNELS 3 Zrotation Yrotation Xrotation
				JOINT RightFoot
				{
					OFFSET -2.500000 -6.900000 0.000000
					CHANNELS 3 Zrotation Yrotation Xrotation
					JOINT RightToeBase
					{
						OFFSET -0.200000 -0.500000 1.950000
						CHANNELS 3 Zrotation Yrotation Xrotation
						End Site
						{
							OFFSET 0.000000 0.000000 0.000000
						}
					}
				}
			}
		}
	}
	JOINT LowerBack
	{
		OFFSET 0.000000 0.000000 0.000000
		CHANNELS 3 Zrotation Yrotation Xrotation
		JOINT Spine
		{
			OFFSET -0.087000 1.940000 -0.288900
			CHANNELS 3 Zrotation Yrotation Xrotation
			JOINT Spine1
			{
				OFFSET 0.000000 1.950000 0.060000
				CHANNELS 3 Zrotation Yrotation Xrotation
				JOINT Neck
				{
					OFFSET 0.000000 0.000000 0.000000
					CHANNELS 3 Zrotation Yrotation Xrotation
					JOINT Neck1
					{
						OFFSET 0.000000 1.600000 0.340000
						CHANNELS 3 Zrotation Yrotation Xrotation
						JOINT Head
						{
							OFFSET 0.000000 1.667000 -0.240000
							CHANNELS 3 Zrotation Yrotation Xrotation
							End Site
							{
								OFFSET 0.000000 0.000000 0.000000
							}
						}
					}
				}
				JOINT LeftShoulder
				{
					OFFSET 0.000000 0.000000 0.000000
					CHANNELS 3 Zrotation Yrotation Xrotation
					JOINT LeftArm
					{
						OFFSET 2.700000 1.550000 -0.730000
						CHANNELS 3 Zrotation Yrotation Xrotation
						JOINT LeftForeArm
						{
							OFFSET 5.450000 0.000000 0.000000
							CHANNELS 3 Zrotation Yrotation Xrotation
							JOINT LeftHand
							{
								OFFSET 3.450000 0.000000 0.000000
								CHANNELS 3 Zrotation Yrotation Xrotation
								JOINT LeftHandIndex1
								{
									OFFSET 0.750000 0.000000 0.000000
									CHANNELS 3 Zrotation Yrotation Xrotation
									End Site
									{
										OFFSET 0.000000 0.000000 0.000000
									}
								}
							}
						}
					}
				}
				JOINT RightShoulder
				{
					OFFSET 0.000000 0.000000 0.000000
					CHANNELS 3 Zrotation Yrotation Xrotation
					JOINT RightArm
					{
						OFFSET -2.700000 1.550000 -0.730000
						CHANNELS 3 Zrotation Yrotation Xrotation
						JOINT RightForeArm
						{
							OFFSET -5.450000 0.000000 0.000000
							CHANNELS 3 Zrotation Yrotation Xrotation
							JOINT RightHand
							{
								OFFSET -3.450000 0.000000 0.000000
								CHANNELS 3 Zrotation Yrotation Xrotation
								JOINT RightHandIndex1
								{
									OFFSET -0.750000 0.000000 0.000000
									CHANNELS 3 Zrotation Yrotation Xrotation
									End Site
									{
										OFFSET 0.000000 0.000000 0.000000
									}
								}
							}
						}
					}
				}
			}
		}
	}
}
MOTION
Frames: 4
Frame Time: 0.016667
1.028950 17.309140 -0.231090 -7.738645 -43.320437 -20.686286 -16.557835 15.733132 2.241616 11.972723 -0.634052 12.050582 3.475132 6.491928 18.570619 0.225953 7.010510 2.364031 -0.122500 -0.304680 0.402000 17.445570 -8.440755 1.087817 -4.498834 -1.176553 0.004850 -4.189204 -3.870860 14.410922 -0.053647 -4.034025 3.021312 -0.021410 0.372020 0.418730 1.495557 -9.885993 -8.041788 -20.102956 12.522581 14.975139 37.727724 6.319978 38.864991 -15.662563 16.417157 -19.435722 23.350074 -0.760206 28.860797 -17.117590 27.377600 -7.514360 38.330353 -8.455164 27.382324 89.883320 -43.817239 -142.476686 -55.246045 -86.625004 104.503626 -4.771027 -15.730951 0.057040 0.726010 -0.185920 -0.162250 -12.818280 -8.018449 4.348650 89.877717 3.526269 -24.547058 2.873531 66.421841 -8.903298 1.804007 -2.225281 -0.333360 -0.169900 0.074440 -0.363020 
0.963380 17.288870 -0.229660 -7.255521 -43.870515 -21.025223 -16.868036 17.188561 2.598154 13.134878 -0.613130 10.712271 2.809007 7.075893 19.084227 0.364894 7.301446 2.256771 -0.080580 -0.281770 0.417660 17.203977 -7.184554 0.880131 -3.746507 -1.139844 0.956419 -5.387432 -3.402002 15.799682 -0.009809 -3.654386 3.154572 -0.061970 0.277260 0.379590 3.517177 -14.963945 -9.432004 -25.468738 3.721887 13.781960 23.998490 -2.935234 35.352817 -14.722524 15.750692 -15.463843 14.354331 1.350345 37.145690 -16.294380 26.419620 -8.349550 32.731995 -29.631799 -5.540093 -19.837470 -48.612395 -19.393932 144.684917 -77.408915 -92.262476 -6.659494 -6.901502 0.156260 0.592850 -0.113220 -0.154350 -15.191208 17.531709 12.969371 88.356773 5.998339 -22.944590 21.934187 67.830526 0.724088 1.998944 -2.441251 -0.298200 -0.167520 0.049260 -0.360590 
0.897090 17.275130 -0.235190 -7.981748 -42.358986 -20.512711 -16.842185 16.924172 2.364855 14.405886 -0.877199 10.350545 2.063247 7.397024 19.532747 0.380010 7.340374 2.211339 -0.067690 -0.281840 0.416530 17.308263 -7.116624 0.763448 -2.736312 -1.337152 1.609508 -6.293531 -3.460016 17.017505 -0.128422 -3.789006 3.106211 -0.096570 0.208700 0.350820 2.510078 -14.403150 -8.564446 -23.971132 3.402576 12.192455 23.507214 -4.581577 35.466470 -13.166171 12.759425 -13.211044 9.885490 2.001027 36.581198 -15.571340 25.819050 -9.141740 30.192573 -31.389853 -4.213518 -17.763666 -43.280690 -7.567662 139.613018 -65.914807 -108.930773 -7.095230 -2.463102 0.233250 0.494360 -0.061980 -0.156960 -14.015950 18.395379 13.999456 87.118200 3.315113 -24.923487 36.523476 66.607112 9.011080 1.876384 -2.451081 -0.281620 -0.171130 0.040860 -0.361140 
0.836060 17.259950 -0.252750 -8.413202 -41.113740 -20.717081 -16.794481 16.859934 2.366278 15.878351 -1.296573 10.187159 1.489626 7.716169 20.611657 0.355419 7.439853 2.154361 -0.045000 -0.287330 0.441510 17.311724 -7.218168 0.881188 -1.737762 -1.571501 2.211837 -7.720703 -3.312511 17.906297 -0.215438 -3.836339 3.093168 -0.117730 0.139320 0.293430 2.238679 -14.074830 -8.360545 -23.927613 3.791564 13.162909 23.614484 -4.146403 34.472153 -12.169443 10.733637 -13.057463 6.881418 2.482330 37.540710 -14.526310 24.716120 -10.492230 26.548282 -31.378372 -1.741631 -15.526248 -41.945429 -1.712226 140.609559 -60.129292 -122.545928 -6.535254 -0.121601 0.345130 0.385890 -0.018670 -0.167220 -11.237929 19.076384 14.702333 85.897325 0.194172 -26.874718 45.825270 64.669314 13.609381 1.805320 -2.380729 -0.300900 -0.136840 0.034670 -0.387710 
